HIERARCHY
ROOT hip
{
  OFFSET 0 0 0
  CHANNELS 6 Xposition Yposition Zposition Zrotation Yrotation Xrotation
  JOINT abdomen
  {
    OFFSET 0 20.6881 -0.73152
    CHANNELS 3 Zrotation Xrotation Yrotation
    JOINT chest
    {
      OFFSET 0 11.7043 -0.48768
      CHANNELS 3 Zrotation Xrotation Yrotation
      JOINT neck
      {
        OFFSET 0 22.1894 -2.19456
        CHANNELS 3 Zrotation Xrotation Yrotation
        JOINT head
        {
          OFFSET -0.24384 7.07133 1.2192
          CHANNELS 3 Zrotation Xrotation Yrotation
          JOINT leftEye
          {
            OFFSET 4.14528 8.04674 8.04672
            CHANNELS 3 Zrotation Xrotation Yrotation
            End Site
            {
              OFFSET 1 0 0
            }
          }
          JOINT rightEye
          {
            OFFSET -3.6576 8.04674 8.04672
            CHANNELS 3 Zrotation Xrotation Yrotation
            End Site
            {
              OFFSET 1 0 0
            }
          }
        }
      }
      JOINT rCollar
      {
        OFFSET -2.68224 19.2634 -4.8768
        CHANNELS 3 Zrotation Xrotation Yrotation
        JOINT rShldr
        {
          OFFSET -8.77824 -1.95073 1.46304
          CHANNELS 3 Zrotation Xrotation Yrotation
          JOINT rForeArm
          {
            OFFSET -28.1742 -1.7115 0.48768
            CHANNELS 3 Zrotation Xrotation Yrotation
            JOINT rHand
            {
              OFFSET -22.5879 0.773209 7.07136
              CHANNELS 3 Zrotation Xrotation Yrotation
              JOINT rThumb1
              {
                OFFSET -1.2192 -0.487915 3.41376
                CHANNELS 3 Zrotation Xrotation Yrotation
                JOINT rThumb2
                {
                  OFFSET -3.37035 -0.52449 3.41376
                  CHANNELS 3 Zrotation Xrotation Yrotation
                  End Site
                  {
                    OFFSET -1.78271 -1.18214 1.43049
                  }
                }
              }
              JOINT rIndex1
              {
                OFFSET -7.75947 0.938293 5.60832
                CHANNELS 3 Zrotation Xrotation Yrotation
                JOINT rIndex2
                {
                  OFFSET -2.54057 -0.884171 1.56538
                  CHANNELS 3 Zrotation Xrotation Yrotation
                  End Site
                  {
                    OFFSET -1.62519 -0.234802 1.16502
                  }
                }
              }
              JOINT rMid1
              {
                OFFSET -8.24714 1.18213 3.41376
                CHANNELS 3 Zrotation Xrotation Yrotation
                JOINT rMid2
                {
                  OFFSET -3.10165 -0.590103 1.0647
                  CHANNELS 3 Zrotation Xrotation Yrotation
                  End Site
                  {
                    OFFSET -2.48547 -0.328903 0.83742
                  }
                }
              }
              JOINT rRing1
              {
                OFFSET -8.82822 0.546677 1.51678
                CHANNELS 3 Zrotation Xrotation Yrotation
                JOINT rRing2
                {
                  OFFSET -2.60934 -0.819778 -0.0198488
                  CHANNELS 3 Zrotation Xrotation Yrotation
                  End Site
                  {
                    OFFSET -2.33842 -0.294052 0.168128
                  }
                }
              }
              JOINT rPinky1
              {
                OFFSET -8.27202 -0.0477905 -0.4584
                CHANNELS 3 Zrotation Xrotation Yrotation
                JOINT rPinky2
                {
                  OFFSET -1.82734 -0.647385 -0.700984
                  CHANNELS 3 Zrotation Xrotation Yrotation
                  End Site
                  {
                    OFFSET -1.69225 -0.51767 -0.607171
                  }
                }
              }
            }
          }
        }
      }
      JOINT lCollar
      {
        OFFSET 2.68224 19.2634 -4.8768
        CHANNELS 3 Zrotation Xrotation Yrotation
        JOINT lShldr
        {
          OFFSET 8.77824 -1.95073 1.46304
          CHANNELS 3 Zrotation Xrotation Yrotation
          JOINT lForeArm
          {
            OFFSET 28.1742 -1.7115 0.48768
            CHANNELS 3 Zrotation Xrotation Yrotation
            JOINT lHand
            {
              OFFSET 22.5879 0.773209 7.07136
              CHANNELS 3 Zrotation Xrotation Yrotation
              JOINT lThumb1
              {
                OFFSET 1.2192 -0.487915 3.41376
                CHANNELS 3 Zrotation Xrotation Yrotation
                JOINT lThumb2
                {
                  OFFSET 3.37035 -0.52449 3.41376
                  CHANNELS 3 Zrotation Xrotation Yrotation
                  End Site
                  {
                    OFFSET 1.78271 -1.18214 1.43049
                  }
                }
              }
              JOINT lIndex1
              {
                OFFSET 7.75947 0.938293 5.60832
                CHANNELS 3 Zrotation Xrotation Yrotation
                JOINT lIndex2
                {
                  OFFSET 2.54057 -0.884171 1.56538
                  CHANNELS 3 Zrotation Xrotation Yrotation
                  End Site
                  {
                    OFFSET 1.62519 -0.234802 1.16502
                  }
                }
              }
              JOINT lMid1
              {
                OFFSET 8.24714 1.18213 3.41376
                CHANNELS 3 Zrotation Xrotation Yrotation
                JOINT lMid2
                {
                  OFFSET 3.10165 -0.590103 1.0647
                  CHANNELS 3 Zrotation Xrotation Yrotation
                  End Site
                  {
                    OFFSET 2.48547 -0.328903 0.83742
                  }
                }
              }
              JOINT lRing1
              {
                OFFSET 8.82822 0.546677 1.51678
                CHANNELS 3 Zrotation Xrotation Yrotation
                JOINT lRing2
                {
                  OFFSET 2.60934 -0.819778 -0.0198488
                  CHANNELS 3 Zrotation Xrotation Yrotation
                  End Site
                  {
                    OFFSET 2.33842 -0.294052 0.168128
                  }
                }
              }
              JOINT lPinky1
              {
                OFFSET 8.27202 -0.0477905 -0.4584
                CHANNELS 3 Zrotation Xrotation Yrotation
                JOINT lPinky2
                {
                  OFFSET 1.82734 -0.647385 -0.700984
                  CHANNELS 3 Zrotation Xrotation Yrotation
                  End Site
                  {
                    OFFSET 1.69225 -0.51767 -0.607171
                  }
                }
              }
            }
          }
        }
      }
    }
  }
  JOINT rButtock
  {
    OFFSET -8.77824 4.35084 1.2192
    CHANNELS 3 Zrotation Xrotation Yrotation
    JOINT rThigh
    {
      OFFSET 0 -1.70687 -2.19456
      CHANNELS 3 Zrotation Xrotation Yrotation
      JOINT rShin
      {
        OFFSET 0 -36.8199 0.73152
        CHANNELS 3 Zrotation Xrotation Yrotation
        JOINT rFoot
        {
          OFFSET 0.73152 -45.1104 -5.12064
          CHANNELS 3 Zrotation Xrotation Yrotation
          End Site
          {
            OFFSET -1.1221 -3.69964 12.103
          }
        }
      }
    }
  }
  JOINT lButtock
  {
    OFFSET 8.77824 4.35084 1.2192
    CHANNELS 3 Zrotation Xrotation Yrotation
    JOINT lThigh
    {
      OFFSET 0 -1.70687 -2.19456
      CHANNELS 3 Zrotation Xrotation Yrotation
      JOINT lShin
      {
        OFFSET 0 -36.8199 0.73152
        CHANNELS 3 Zrotation Xrotation Yrotation
        JOINT lFoot
        {
          OFFSET -0.73152 -45.1104 -5.12064
          CHANNELS 3 Zrotation Xrotation Yrotation
          End Site
          {
            OFFSET 1.1221 -3.69964 12.103
          }
        }
      }
    }
  }
}
MOTION
Frames:	4
Frame Time:	0.03333
46.4448 55.546099999999996 8.988999999999999 1.863098 3.059716 1.174519 -4.91046 22.068889 -157.281091 4.646538 7.147612 176.275887 18.954634 26.006445 91.928165 -48.021084 22.133148 -88.457468 -84.42654 6.563278 -7.233219 -33.923454 -9.592114 30.762259 -141.356359 25.087906 161.94852 -83.491752 60.324468 68.060323 5.349918 -48.272947 -133.809549 166.373794 -27.69991 144.411991 3.447037 -19.323059 7.229043 25.815029 -21.334208 -32.480102 -129.39803 20.311354 105.487206 -7.313404 2.580888 -20.824274 -150.861803 -21.766343 160.190281 -0.477626 62.349437 12.386699 -77.898904 65.55553 116.302393 -66.234655 -56.862951 -92.745006 175.074708 56.774516 -126.740355 -13.676702 40.613356 17.324406 -32.224204 -71.524294 -20.567685 96.519604 -35.666874 113.137479 -0.245131 -1.785644 145.426223 171.440759 2.033282 -144.123766 5.23044 0.899968 7.341773 -39.617532 -37.561139 7.266448 12.061462 30.756716 -4.050678 -3.15287 -12.410348 -18.480965 155.001119 -67.325638 -169.85133 171.580908 -47.294142 -145.600298 4.633061 -33.453585 6.722835 138.378357 16.763079 165.50914 148.887376 -49.308844 122.243291 -131.005787 49.451586 110.978478 -63.225894 79.794762 -90.689959 126.135827 6.402587 119.754997 80.254083 9.1463 10.477811 -49.729944 -56.821685 -135.629352 53.990816 70.937573 100.909364 -117.047484 15.070177 72.475017 82.79678 -22.128331 -163.182309 23.593601 9.222643 69.342849
47.1321 55.340500000000006 8.761800000000001 1.140767 4.713118 0.925962 -4.18831 25.669534 -2.870102 -0.902033 -11.556919 24.336282 -0.798704 32.004712 -116.171354 49.895851 17.431519 99.862578 -66.52746 4.596439 -7.002105 -40.338039 -9.71847 26.062878 -142.816551 -13.554321 173.618797 -22.624648 33.147562 4.15398 -38.857966 -8.89045 -152.355412 115.17104 -66.671206 99.07083 -14.899335 -5.348986 9.071922 34.344593 -64.461321 -43.972065 9.597875 -23.288488 -4.514097 -149.437379 -12.8395 93.306596 -149.136307 -35.608699 156.50884 4.298513 45.463147 18.908537 -119.741885 19.60009 163.160566 -126.605082 30.127247 -179.629131 7.310079 43.359014 0.60927 -120.864295 58.503616 176.788946 -45.87534 -75.649962 -32.957601 -76.797483 41.75437 67.958622 12.7411 -7.507041 -111.818722 1.127502 -30.523718 4.172171 -10.378761 -15.576697 7.544711 -13.663385 -22.538205 15.836236 178.390104 -72.333704 -124.881157 161.631057 -81.087114 -119.800902 146.897188 52.939709 -138.489594 -2.147579 -28.534854 1.417343 2.065357 -0.176365 -6.834417 129.300315 -18.171048 179.294649 54.606749 -49.156372 11.216988 -54.90648 18.39277 40.916787 81.740915 61.124053 89.246446 175.020636 28.506579 -167.532518 -15.075411 -81.528545 -88.746729 -7.392222 40.278539 -90.258405 24.125952 -8.820366 42.635355 -13.971901 -39.646512 -176.626624 -95.320324 -59.778814 -125.606093 -33.853108 8.470814 -145.274669
46.8002 55.42209999999999 7.6095 -1.16248 16.044721 2.15051 -0.505043 22.239842 -0.842897 -1.837479 -8.682257 28.845553 2.432774 25.62726 -120.650304 39.246069 15.612346 109.631231 -56.745793 13.937555 -25.504497 -60.311219 -7.986396 13.703096 10.694953 34.572339 -5.09056 102.364981 -63.508948 62.488677 173.871546 -58.95725 39.229614 161.643944 -29.371298 136.080098 134.843167 -27.417518 70.477585 -27.942983 -54.359257 -19.147594 -2.742667 -5.629006 4.123117 -169.875641 -14.670335 101.000898 15.224192 -1.853616 12.281434 -26.600169 19.4262 -11.003506 -111.624291 14.267628 146.506729 52.177702 33.967291 2.677954 -7.79672 14.708757 10.147523 -132.732866 20.234158 -136.246136 145.700234 23.307315 -136.79064 99.232047 50.334334 -59.447419 -164.279937 47.702116 56.138767 11.210947 3.649433 5.509288 165.005939 -1.86177 -91.950382 82.535162 7.882365 -31.99073 11.634736 -4.434054 -2.174689 -21.765116 19.738213 -34.516047 141.822462 55.659295 -127.68424 167.892316 5.121662 -131.65141 -6.6033 -49.365391 4.966637 -18.571573 43.941728 8.364195 -176.2144 54.826906 179.957658 -121.501661 -59.830419 -147.160674 -15.376506 73.693239 -161.053778 123.632162 37.270766 96.575595 70.708472 40.967476 -146.077809 166.447387 -28.468151 -72.328121 34.964499 5.093837 67.415904 -52.379718 -25.553737 94.785763 79.859274 -61.6347 -23.751109 23.362396 -72.765179 -64.687435
46.219300000000004 56.828 6.426800000000001 -0.507181 18.261202 3.632016 -0.129797 21.278142 -89.633725 8.715158 -2.835211 115.984777 6.978456 12.184037 -24.461083 3.166113 -30.983622 22.386964 -73.074253 19.661238 -26.325049 -54.972388 -8.334866 15.94515 8.765301 19.60847 -4.664527 30.504237 36.171797 24.481854 -4.711359 -37.872818 89.56464 -12.282084 32.795695 2.452892 -174.464533 0.84479 84.18511 -18.761491 -52.684275 -5.841863 120.936501 -68.053684 75.115002 7.004686 19.269786 -1.000458 -144.594134 21.592281 133.654937 -166.749642 -45.493557 144.068252 33.967813 -22.753843 12.957109 163.671341 -23.88708 178.280712 157.467956 76.442682 -112.210158 -171.120745 59.560321 -153.083569 92.777963 54.750105 -91.09539 -39.09752 -22.421364 -70.76564 4.435097 -63.95064 -100.035585 5.834939 -14.897063 5.719121 174.591436 -9.012025 -93.514171 13.769525 -53.747273 23.248304 13.667551 0.213457 -2.001666 -16.384463 9.321758 -40.681094 156.469923 4.223842 -146.709098 14.115806 25.743381 -15.288584 -3.755392 -13.07678 -3.6347 -8.53957 -30.411061 28.788913 69.347119 -56.543765 25.990651 148.171736 30.604464 87.522478 -54.206548 55.541805 -104.423881 96.535989 21.512557 -27.877049 -79.296824 17.712669 -143.279128 -107.161184 -28.614771 172.592601 23.544328 -16.782888 41.344947 -16.440876 -35.63778 70.287421 84.211023 2.207319 175.839653 16.413618 30.279698 91.613039
